<?xml version="1.0" encoding="UTF-8"?>
<svg width="700pt" height="700pt" version="1.1" viewBox="0 0 700 700" xmlns="http://www.w3.org/2000/svg" xmlns:xlink="http://www.w3.org/1999/xlink">
 <g>
  <path d="m350 89.129c-105.24 0-190.86 85.625-190.86 190.87s85.621 190.87 190.86 190.87 190.86-85.625 190.86-190.87-85.621-190.87-190.86-190.87zm-157.27 190.87c0-37.32 13.094-71.625 34.883-98.621l221 221c-26.992 21.801-61.297 34.887-98.617 34.887-86.715 0-157.27-70.555-157.27-157.27zm279.64 98.621-221-221c26.996-21.801 61.305-34.887 98.621-34.887 86.715 0 157.27 70.555 157.27 157.27 0 37.324-13.094 71.629-34.891 98.621z"/>

 </g>
</svg>
