<svg version="1" xmlns="http://www.w3.org/2000/svg" viewBox="0 0 48 48" enable-background="new 0 0 48 48">
<polygon fill="#bdbdbd" points="40,9 40,7 31,7 31,12 24,12 15,12 15,23 8,23 8,25 15,25 15,36 24,36 31,36 31,41 40,41 40,39 33,39 33,31 40,31 40,29 31,29 31,34 24,34 17,34 17,14 24,14 31,14 31,19 40,19 40,17 33,17 33,9" id="id_101"></polygon>
<rect x="4" y="20" fill="#000000" width="8" height="8" id="id_102"></rect>
<g fill="#3F51B5">
<rect x="36" y="14" width="8" height="8" id="id_103" style="fill: rgb(71, 71, 71);"></rect>
<rect x="36" y="4" width="8" height="8" id="id_104" style="fill: rgb(71, 71, 71);"></rect>
<rect x="20" y="9" width="8" height="8" id="id_105" style="fill: rgb(71, 71, 71);"></rect>
<rect x="20" y="31" width="8" height="8" id="id_106" style="fill: rgb(71, 71, 71);"></rect>
<rect x="36" y="36" width="8" height="8" id="id_107" style="fill: rgb(71, 71, 71);"></rect>
<rect x="36" y="26" width="8" height="8" id="id_108" style="fill: rgb(71, 71, 71);"></rect>
</g>
</svg>