<svg id="Layer_1" data-name="Layer 1" xmlns="http://www.w3.org/2000/svg" viewBox="0 0 128 128"><defs><style>.cls-1{fill:#2b77c0;}.cls-2{fill:#3b4551;}</style></defs><title>a</title><path class="cls-1" d="M39.86168,68.55249a3.50237,3.50237,0,0,0,0,7.00474H48.37a3.50237,3.50237,0,0,0,0-7.00474Z" id="id_101" style="fill: rgb(5, 5, 5);"></path><path class="cls-1" d="M71.23117,68.55249a3.50237,3.50237,0,0,0,0,7.00474h8.5083a3.50237,3.50237,0,0,0,0-7.00474Z" id="id_102" style="fill: rgb(0, 0, 0);"></path><path class="cls-2" d="M69.07485,111.16993a17.86032,17.86032,0,0,1-9.27428,2.942c-16.251,0-33.65082-29.61608-33.65082-50.46221q0-1.05071.08414-2.10142A87.41226,87.41226,0,0,0,70.728,49.416a86.83107,86.83107,0,0,0,22.10684,7.84528,32.07176,32.07176,0,0,1,.61651,6.38841c0,9.44238-3.58651,20.678-8.99415,30.14845A61.5892,61.5892,0,0,0,96.08519,89.343c3.67048-8.74191,5.7719-17.90417,5.7719-25.69336a42.31651,42.31651,0,0,0-.30817-5.01534A42.04566,42.04566,0,0,0,17.8282,61.15595c-.05609.81266-.08414,1.6532-.08414,2.49373,0,23.22767,18.82884,58.8679,42.05652,58.8679,8.798,0,16.9234-5.07143,23.648-12.66463a72.5215,72.5215,0,0,1-14.1215,1.317Z" id="id_103" style="fill: rgb(0, 0, 0);"></path><path class="cls-1" d="M117.42554,71.84964a64.87621,64.87621,0,0,0,.539-8.20048,61.63,61.63,0,0,0-.41454-6.90761A58.161,58.161,0,0,0,1.75149,59.999c-.0903,1.20668-.12176,2.41472-.12176,3.65013a3.50237,3.50237,0,0,0,7.00474,0c0-1.06029.026-2.096.10534-3.18223a51.13888,51.13888,0,0,1,87.62361-32.5748,51.6175,51.6175,0,0,1,14.227,29.6484,54.33921,54.33921,0,0,1,.36939,6.10863,60.03789,60.03789,0,0,1-.87422,9.95166l-.54725,3.23969,3.19728.75383a8.61319,8.61319,0,0,1,6.62988,8.44263,8.7092,8.7092,0,0,1-8.68479,8.71352,8.472,8.472,0,0,1-6.00055-2.43661l-1.86337-1.83875-2.29159,1.26551a62.83022,62.83022,0,0,1-34.94779,8.10591,6.56685,6.56685,0,1,0-.54229,6.982c1.44353.07337,2.87424.12552,4.27792.12552a68.46277,68.46277,0,0,0,32.49134-7.95422,15.4867,15.4867,0,0,0,8.87633,2.75538,15.72039,15.72039,0,0,0,6.7448-29.90561Z" id="id_104" style="fill: rgb(163, 163, 163);"></path></svg>