<svg id="Layer_1" data-name="Layer 1" xmlns="http://www.w3.org/2000/svg" viewBox="0 0 128 128"><defs><style>.cls-1{fill:#2d3e50;}</style></defs><title>n</title><path class="cls-1" d="M120.36433,42.96987H105.48276a5.96828,5.96828,0,0,0-.49969-.734L80.18837,11.56574a5.9526,5.9526,0,1,0-9.25815,7.4847L90.26745,42.96987H37.732L57.07,19.047a5.95265,5.95265,0,0,0-9.25878-7.48407L23.01653,42.23619a5.96416,5.96416,0,0,0-.49941.73368H7.63567a4.66552,4.66552,0,0,0,0,9.331h5.02915a334.93618,334.93618,0,0,1,6.30645,61.7265,4.6657,4.6657,0,0,0,4.66552,4.62047h80.72648a4.6657,4.6657,0,0,0,4.66552-4.62047,334.93618,334.93618,0,0,1,6.30645-61.7265h5.02908a4.66552,4.66552,0,0,0,0-9.331ZM45.81893,93.6793a4.34376,4.34376,0,1,1-8.68753,0V67.93848a4.34376,4.34376,0,0,1,8.68753,0Zm22.52322,0a4.34376,4.34376,0,1,1-8.68753,0V67.93848a4.34376,4.34376,0,0,1,8.68753,0Zm22.52322,0a4.34376,4.34376,0,1,1-8.68753,0V67.93848a4.34376,4.34376,0,0,1,8.68753,0Z"/></svg>