<svg xmlns="http://www.w3.org/2000/svg" viewBox="0 0 1479.5 1410.06"><defs><style>.cls-1{fill:#ededed;}.cls-2{fill:#b2b2b2;}.cls-3{fill:#c4c4c4;}.cls-4{fill:#e6e6e6;}.cls-5{fill:#fcfcfc;}.cls-6{fill:#fff;}</style></defs><g id="Layer_2" data-name="Layer 2"><g id="Layer_1-2" data-name="Layer 1"><rect class="cls-1" y="889" width="1479.5" height="342.74" rx="171.37"/><rect class="cls-1" x="42.08" y="321.35" width="1437.43" height="309.5" rx="154.75"/><rect class="cls-1" x="367.63" y="99.99" width="917.58" height="173.77" rx="86.89"/><path class="cls-1" d="M1350.57,889c-.68,0-1.37,0-2.06,0H189.27c-.23,0-.46,0-.7,0a129.06,129.06,0,0,0,0-258.11c.24,0,.47,0,.7,0H1348.51c.69,0-.67,0,0,0-34.83.53-64.26,14.88-87.16,37.77A129.07,129.07,0,0,0,1350.57,889Z"/><path class="cls-2" d="M861.3,1056.6H849.73a7.2,7.2,0,0,1,0-14.4H861.3a78.19,78.19,0,0,0,18.32-2.16,7.2,7.2,0,0,1,3.37,14A92.78,92.78,0,0,1,861.3,1056.6Zm-51.27,0H778.26a7.2,7.2,0,0,1,0-14.4H810a7.2,7.2,0,0,1,0,14.4Zm-71.47,0H706.79a7.2,7.2,0,0,1,0-14.4h31.77a7.2,7.2,0,0,1,0,14.4Zm-71.48,0H635.32a7.2,7.2,0,0,1,0-14.4h31.76a7.2,7.2,0,1,1,0,14.4Zm-71.47,0H563.85a7.2,7.2,0,0,1,0-14.4h31.76a7.2,7.2,0,1,1,0,14.4Zm-71.47,0H492.37a7.2,7.2,0,0,1,0-14.4h31.77a7.2,7.2,0,1,1,0,14.4Zm-71.47,0H420.9a7.2,7.2,0,0,1,0-14.4h31.77a7.2,7.2,0,1,1,0,14.4Zm-71.47,0H349.43a7.2,7.2,0,0,1,0-14.4H381.2a7.2,7.2,0,0,1,0,14.4Zm-71.48,0H291.41a93.73,93.73,0,0,1-14.52-1.14,7.2,7.2,0,0,1,2.25-14.22,78.49,78.49,0,0,0,12.27,1h18.31a7.2,7.2,0,1,1,0,14.4Zm-68.07-16.06a7.13,7.13,0,0,1-4.2-1.36,92.13,92.13,0,0,1-23.58-24.83,7.2,7.2,0,0,1,12.09-7.81,77.78,77.78,0,0,0,19.91,21,7.2,7.2,0,0,1-4.22,13Zm674.71-4.17a7.2,7.2,0,0,1-4.67-12.68,77.94,77.94,0,0,0,18.2-22.47,7.2,7.2,0,0,1,12.67,6.83A92.47,92.47,0,0,1,921,1034.66,7.18,7.18,0,0,1,916.36,1036.37ZM206.8,980.56a7.2,7.2,0,0,1-7.14-6.44,93.84,93.84,0,0,1-.52-9.79V941.62a7.2,7.2,0,1,1,14.39,0v22.71a81.55,81.55,0,0,0,.44,8.28,7.2,7.2,0,0,1-6.4,7.91A6.62,6.62,0,0,1,206.8,980.56Zm739.53-6.75h-.2a7.19,7.19,0,0,1-7-7.39c0-.69,0-1.39,0-2.09V934.85a7.2,7.2,0,0,1,14.4,0v29.48c0,.83,0,1.66,0,2.48A7.19,7.19,0,0,1,946.33,973.81Zm-740-64.7a7.2,7.2,0,0,1-7.2-7.2V870.15a7.2,7.2,0,1,1,14.39,0v31.76A7.19,7.19,0,0,1,206.34,909.11Zm740-6.77a7.19,7.19,0,0,1-7.2-7.19V863.38a7.2,7.2,0,1,1,14.4,0v31.77A7.2,7.2,0,0,1,946.36,902.34Zm-740-64.7a7.2,7.2,0,0,1-7.2-7.2V798.67a7.2,7.2,0,0,1,14.39,0v31.77A7.2,7.2,0,0,1,206.34,837.64Zm740-6.77a7.2,7.2,0,0,1-7.2-7.2V791.91a7.2,7.2,0,0,1,14.4,0v31.76A7.2,7.2,0,0,1,946.36,830.87Zm-740-64.71a7.19,7.19,0,0,1-7.2-7.19V727.2a7.2,7.2,0,0,1,14.39,0V759A7.19,7.19,0,0,1,206.34,766.16Zm740-6.76a7.2,7.2,0,0,1-7.2-7.2V720.44a7.2,7.2,0,1,1,14.4,0V752.2A7.2,7.2,0,0,1,946.36,759.4Zm-740-64.71a7.19,7.19,0,0,1-7.2-7.19V655.73a7.2,7.2,0,1,1,14.39,0V687.5A7.19,7.19,0,0,1,206.34,694.69Zm740-6.76a7.2,7.2,0,0,1-7.2-7.2V649a7.2,7.2,0,1,1,14.4,0v31.76A7.2,7.2,0,0,1,946.36,687.93Zm-740-64.71a7.2,7.2,0,0,1-7.2-7.2V584.26a7.2,7.2,0,1,1,14.39,0V616A7.19,7.19,0,0,1,206.34,623.22Zm740-6.76a7.2,7.2,0,0,1-7.2-7.2V577.49a7.2,7.2,0,0,1,14.4,0v31.77A7.21,7.21,0,0,1,946.36,616.46Zm-740-64.71a7.2,7.2,0,0,1-7.2-7.2V512.79a7.2,7.2,0,1,1,14.39,0v31.76A7.19,7.19,0,0,1,206.34,551.75Zm740-6.77a7.19,7.19,0,0,1-7.2-7.19V506a7.2,7.2,0,1,1,14.4,0v31.77A7.2,7.2,0,0,1,946.36,545Zm-740-64.7a7.2,7.2,0,0,1-7.2-7.2V441.32a7.2,7.2,0,1,1,14.39,0v31.76A7.19,7.19,0,0,1,206.34,480.28Zm740-6.77a7.19,7.19,0,0,1-7.2-7.19V434.55a7.2,7.2,0,1,1,14.4,0v31.77A7.2,7.2,0,0,1,946.36,473.51Zm-740-64.7a7.2,7.2,0,0,1-7.2-7.2V369.84a7.2,7.2,0,0,1,14.39,0v31.77A7.2,7.2,0,0,1,206.34,408.81Zm740-6.77a7.2,7.2,0,0,1-7.2-7.2v-32a7.2,7.2,0,0,1,14.4,0v32A7.2,7.2,0,0,1,946.36,402Zm-740-64.71a7.19,7.19,0,0,1-7.2-7.19V298.37a7.2,7.2,0,1,1,14.39,0v31.77A7.19,7.19,0,0,1,206.34,337.33Zm727.43-4.24a7.21,7.21,0,0,1-5.72-2.83,53.5,53.5,0,0,0-4.71-5.38l-16.73-16.73A7.19,7.19,0,0,1,916.79,298l16.73,16.72a67.67,67.67,0,0,1,6,6.82,7.19,7.19,0,0,1-5.71,11.57Zm-50.15-50.91a7.16,7.16,0,0,1-5.08-2.1l-22.46-22.47a7.19,7.19,0,1,1,10.17-10.17l22.46,22.46a7.19,7.19,0,0,1-5.09,12.28ZM207.37,265.92a7.22,7.22,0,0,1-7.12-8.31,91.2,91.2,0,0,1,11.51-32.26,7.2,7.2,0,0,1,12.42,7.27,77.05,77.05,0,0,0-9.71,27.21A7.19,7.19,0,0,1,207.37,265.92Zm625.72-34.27a7.2,7.2,0,0,1-5.09-2.11l-19.65-19.65c-.82-.82-1.68-1.63-2.56-2.4a7.2,7.2,0,0,1,9.49-10.82c1.12,1,2.21,2,3.25,3l19.65,19.65a7.2,7.2,0,0,1-5.09,12.29ZM245.15,207.74a7.2,7.2,0,0,1-3.92-13.24,91.5,91.5,0,0,1,31.7-13,7.2,7.2,0,1,1,2.87,14.11,77.08,77.08,0,0,0-26.73,10.94A7.22,7.22,0,0,1,245.15,207.74Zm529.4-13.51-.52,0c-1.28-.09-2.59-.14-3.88-.14H742.78a7.2,7.2,0,0,1,0-14.39h27.37c1.64,0,3.29.06,4.91.17a7.2,7.2,0,0,1-.51,14.38Zm-71.47-.16H671.31a7.2,7.2,0,1,1,0-14.39h31.77a7.2,7.2,0,0,1,0,14.39Zm-71.48,0H599.84a7.2,7.2,0,1,1,0-14.39H631.6a7.2,7.2,0,1,1,0,14.39Zm-71.47,0H528.37a7.2,7.2,0,1,1,0-14.39h31.76a7.2,7.2,0,1,1,0,14.39Zm-71.47,0H456.9a7.2,7.2,0,1,1,0-14.39h31.76a7.2,7.2,0,1,1,0,14.39Zm-71.47,0H385.42a7.2,7.2,0,0,1,0-14.39h31.77a7.2,7.2,0,1,1,0,14.39Zm-71.47,0H314a7.2,7.2,0,1,1,0-14.39h31.77a7.2,7.2,0,0,1,0,14.39Z"/><path class="cls-3" d="M1100.79,1101.24l-7.08,6-37.5,31.47-23.08-27.48-3.38-4.07-3.41-4.06-42.55-50.71-3.41-4.06L977,1044.2l-37.31-44.46-3.43-4.08-3.41-4.06,4.38-3q9.69-6.86,18.87-14.54T973.64,958q1.9-1.89,3.73-3.8l3.44,4.09,3.41,4.09,37.33,44.46,3.4,4.06,3.43,4.08,42.55,50.71,3.39,4.06,3.4,4,17.13,20.4Z"/><path class="cls-2" d="M1219.52,1393l-206-245.5a20.46,20.46,0,0,1,2.52-28.83l72-60.41a20.47,20.47,0,0,1,28.84,2.52l206,245.5a47.92,47.92,0,0,1-5.91,67.5L1287,1398.85A47.91,47.91,0,0,1,1219.52,1393Z"/><path class="cls-4" d="M1046.63,536.7C922.2,388.41,701.14,369.07,552.84,493.5S385.2,839,509.65,987.29c117,139.39,319.33,164.85,466.37,64,1.46-1,2.92-2,4.36-3s2.88-2.06,4.31-3.09q9.54-7,18.75-14.7t17.71-15.93c1.28-1.21,2.55-2.43,3.8-3.7s2.51-2.49,3.75-3.76C1153.52,879.82,1163.61,676.09,1046.63,536.7ZM600.2,549.94c116.94-98.11,291.88-82.8,390,34.12,90.62,108,84.46,265.53-9.15,366.24q-1.8,1.94-3.67,3.86t-3.73,3.8Q965.3,966.3,956.06,974t-18.87,14.54l-4.38,3c-1.47,1-2.95,2-4.43,2.93a276.85,276.85,0,0,1-362.29-54.62C468,823,483.28,648.05,600.2,549.94Z"/><path class="cls-2" d="M1118.29,657.37a356,356,0,1,0-371.16,459.05c10.5.93,21,1.38,31.45,1.38a354.43,354.43,0,0,0,200.87-62.41c1.46-1,2.9-2,4.34-3.05s2.88-2,4.3-3.09q9.58-7,18.74-14.71t17.73-15.9c1.29-1.21,2.56-2.45,3.82-3.7s2.51-2.49,3.74-3.76a356.3,356.3,0,0,0,86.17-353.81ZM1122,792.08a342.68,342.68,0,0,1-96.72,211q-1.86,1.89-3.76,3.75c-1.26,1.25-2.53,2.49-3.8,3.7-5.69,5.51-11.61,10.8-17.71,15.93s-12.4,10-18.78,14.68c-1.42,1.05-2.84,2.08-4.3,3.09s-2.91,2-4.37,3a343.74,343.74,0,0,1-194.18,59.83c-98.59,0-196.54-41.91-264.71-123.18-122.36-145.81-103.26-364,42.55-486.34a342.64,342.64,0,0,1,221.3-80.79q15.26,0,30.68,1.34a345.19,345.19,0,0,1,313.8,374Z"/><path class="cls-5" d="M994.23,580.66C894.08,461.32,716.17,445.74,596.81,545.89S461.9,824,562,943.32c92.66,110.44,251.93,132,369.75,55.29,1.5-1,3-2,4.44-3s2.92-2,4.36-3q9.66-6.79,18.89-14.52T977.07,962c1.25-1.26,2.51-2.53,3.74-3.79s2.45-2.56,3.67-3.85C1080.49,851.68,1086.9,691.1,994.23,580.66ZM981,950.3q-1.8,1.94-3.67,3.86t-3.73,3.8Q965.3,966.3,956.06,974t-18.87,14.54l-4.38,3c-1.47,1-2.95,2-4.43,2.93a276.85,276.85,0,0,1-362.29-54.62C468,823,483.28,648.05,600.2,549.94s291.88-82.8,390,34.12C1080.81,692.06,1074.65,849.59,981,950.3Z"/><path class="cls-2" d="M998.3,577.27a287.39,287.39,0,1,0-245.21,471q12.82,1.13,25.55,1.12a284.54,284.54,0,0,0,156.59-46.7c1.48-1,3-2,4.42-3s2.92-2,4.36-3q9.69-6.86,18.87-14.57t17.61-16c1.26-1.24,2.51-2.51,3.73-3.76s2.49-2.57,3.69-3.84A287.5,287.5,0,0,0,998.3,577.27ZM754,1037.76a275.07,275.07,0,0,1-187.93-97.85C468,823,483.28,648.05,600.2,549.94s291.88-82.8,390,34.12c90.62,108,84.46,265.53-9.15,366.24q-1.8,1.94-3.67,3.86t-3.73,3.8Q965.3,966.3,956.06,974t-18.87,14.54l-4.38,3c-1.47,1-2.95,2-4.43,2.93A274.72,274.72,0,0,1,754,1037.76Z"/><path class="cls-6" d="M981,950.3q-1.8,1.94-3.67,3.86t-3.73,3.8Q965.3,966.3,956.06,974t-18.87,14.54l-4.38,3c-1.47,1-2.95,2-4.43,2.93a276.85,276.85,0,0,1-362.29-54.62C468,823,483.28,648.05,600.2,549.94s291.88-82.8,390,34.12C1080.81,692.06,1074.65,849.59,981,950.3Z"/><path class="cls-6" d="M1268.58,1304.28a9.24,9.24,0,0,1-7-3.19l-167.79-193.78a9.26,9.26,0,0,1,14-12.13L1275.57,1289a9.24,9.24,0,0,1-7,15.31Z"/><path class="cls-6" d="M524.31,569.76a6.7,6.7,0,0,1-4.16-1.44,6.77,6.77,0,0,1-1.16-9.5,327.36,327.36,0,0,1,77.18-71.22,330.71,330.71,0,0,1,94.44-43,326.36,326.36,0,0,1,210,11.73,6.77,6.77,0,0,1-5,12.57c-129.52-51.84-280-11.42-365.92,98.28A6.79,6.79,0,0,1,524.31,569.76Z"/><path class="cls-6" d="M478.76,649a6.78,6.78,0,0,1-6.29-9.28,332.27,332.27,0,0,1,25.47-50.64,6.76,6.76,0,1,1,11.52,7.09A319.43,319.43,0,0,0,485,644.73,6.77,6.77,0,0,1,478.76,649Z"/><path class="cls-2" d="M208.65,129.65a7.19,7.19,0,0,1-7.19-7.2V7.2a7.2,7.2,0,1,1,14.39,0V122.45A7.2,7.2,0,0,1,208.65,129.65Z"/><path class="cls-2" d="M158.92,150.25a7.17,7.17,0,0,1-5.08-2.11l-81.5-81.5A7.2,7.2,0,0,1,82.52,56.46L164,138a7.2,7.2,0,0,1-5.09,12.29Z"/><path class="cls-2" d="M138.33,200H23.07a7.2,7.2,0,1,1,0-14.39H138.33a7.2,7.2,0,0,1,0,14.39Z"/><path class="cls-2" d="M780.71,829.13q-19.55,0-22.26-25.89l-2.73-40.88q-.91-12.72,5.23-19.76t18.39-10.22q20-5,30.89-16.13t10.9-29.3q0-20-10.67-31.57T780.25,643.8q-24.53,0-35.88,18.62-8.64,12.72-15.45,16.35t-18.17,1.82q-12.72-2.26-19.31-10.67t-.68-20.67A90,90,0,0,1,726,611.09Q749.35,597,780.25,597q28.15,0,49.74,10.67a80.5,80.5,0,0,1,33.84,30.89Q876.1,658.79,876.1,687q0,32.26-19.76,52.24t-52.47,28.16l-1.81,35.89Q799.78,829.13,780.71,829.13Zm-.46,97.67a33.6,33.6,0,0,1-24.3-10,32.43,32.43,0,0,1-10.22-24.08A33,33,0,0,1,756,868.2a33.56,33.56,0,0,1,24.3-10,34.12,34.12,0,0,1,24.76,10,33,33,0,0,1,10.22,24.53A32.47,32.47,0,0,1,805,916.81,34.16,34.16,0,0,1,780.25,926.8Z"/></g></g></svg>